# Blender 5.1.2
# www.blender.org
mtllib RoadAssets.mtl
o Plane.005
v -0.150000 0.110000 -52.562794
v 0.150000 0.110000 -52.562794
v -0.150000 0.110000 -55.562794
v 0.150000 0.110000 -55.562794
vn -0.0000 1.0000 -0.0000
vt 0.000000 0.000000
vt 1.000000 0.000000
vt 1.000000 1.000000
vt 0.000000 1.000000
s 1
usemtl LaneMark
f 1/1/1 2/2/1 4/3/1 3/4/1
o Plane.020
v -3.500000 0.110000 -51.062794
v 3.500000 0.110000 -51.062794
v -3.500000 0.110000 -51.462795
v 3.500000 0.110000 -51.462795
vn -0.0000 1.0000 -0.0000
vt 0.000000 0.000000
vt 1.000000 0.000000
vt 1.000000 1.000000
vt 0.000000 1.000000
s 1
usemtl LaneMark
f 5/5/2 6/6/2 8/7/2 7/8/2
o Plane.003
v -0.150000 0.110000 -32.562794
v 0.150000 0.110000 -32.562794
v -0.150000 0.110000 -35.562794
v 0.150000 0.110000 -35.562794
vn -0.0000 1.0000 -0.0000
vt 0.000000 0.000000
vt 1.000000 0.000000
vt 1.000000 1.000000
vt 0.000000 1.000000
s 1
usemtl LaneMark
f 9/9/3 10/10/3 12/11/3 11/12/3
o Plane.004
v -0.150000 0.110000 -36.562794
v 0.150000 0.110000 -36.562794
v -0.150000 0.110000 -39.562794
v 0.150000 0.110000 -39.562794
vn -0.0000 1.0000 -0.0000
vt 0.000000 0.000000
vt 1.000000 0.000000
vt 1.000000 1.000000
vt 0.000000 1.000000
s 1
usemtl LaneMark
f 13/13/4 14/14/4 16/15/4 15/16/4
o Plane.011
v -18.500000 0.110000 -45.912788
v -18.500000 0.110000 -46.212788
v -21.500000 0.110000 -45.912800
v -21.500000 0.110000 -46.212799
vn -0.0000 1.0000 -0.0000
vt 0.000000 0.000000
vt 1.000000 0.000000
vt 1.000000 1.000000
vt 0.000000 1.000000
s 1
usemtl LaneMark
f 17/17/5 18/18/5 20/19/5 19/20/5
o Cube.007
v 4.000000 -0.049998 -50.062794
v 4.000000 0.350002 -50.062794
v 4.000000 -0.050002 -72.062790
v 4.000000 0.349998 -72.062790
v 4.600000 -0.049998 -50.062794
v 4.600000 0.350002 -50.062794
v 4.600000 -0.050002 -72.062790
v 4.600000 0.349998 -72.062790
vn -0.5546 -0.8320 0.0151
vn -0.5546 0.8320 0.0151
vn -0.5546 0.8320 -0.0151
vn -0.5546 -0.8320 -0.0151
vn 0.5546 0.8320 -0.0151
vn 0.5546 -0.8320 -0.0151
vn 0.5546 0.8320 0.0151
vn 0.5546 -0.8320 0.0151
vt 0.375000 0.000000
vt 0.625000 0.000000
vt 0.625000 0.250000
vt 0.375000 0.250000
vt 0.625000 0.500000
vt 0.375000 0.500000
vt 0.625000 0.750000
vt 0.375000 0.750000
vt 0.625000 1.000000
vt 0.375000 1.000000
vt 0.125000 0.500000
vt 0.125000 0.750000
vt 0.875000 0.500000
vt 0.875000 0.750000
s 1
usemtl Curb.004
f 21/21/6 22/22/7 24/23/8 23/24/9
f 23/24/9 24/23/8 28/25/10 27/26/11
f 27/26/11 28/25/10 26/27/12 25/28/13
f 25/28/13 26/27/12 22/29/7 21/30/6
f 23/31/9 27/26/11 25/28/13 21/32/6
f 28/25/10 24/33/8 22/34/7 26/27/12
o Cube.001
v -4.000000 -0.099998 -50.062794
v -4.000000 0.100002 -50.062794
v -4.000000 -0.100002 -72.062790
v -4.000000 0.099998 -72.062790
v 4.000000 -0.099998 -50.062794
v 4.000000 0.100002 -50.062794
v 4.000000 -0.100002 -72.062790
v 4.000000 0.099998 -72.062790
vn -0.0250 -0.9996 0.0091
vn -0.0250 0.9996 0.0091
vn -0.0250 0.9996 -0.0091
vn -0.0250 -0.9996 -0.0091
vn 0.0250 0.9996 -0.0091
vn 0.0250 -0.9996 -0.0091
vn 0.0250 0.9996 0.0091
vn 0.0250 -0.9996 0.0091
vt 0.375000 0.000000
vt 0.625000 0.000000
vt 0.625000 0.250000
vt 0.375000 0.250000
vt 0.625000 0.500000
vt 0.375000 0.500000
vt 0.625000 0.750000
vt 0.375000 0.750000
vt 0.625000 1.000000
vt 0.375000 1.000000
vt 0.125000 0.500000
vt 0.125000 0.750000
vt 0.875000 0.500000
vt 0.875000 0.750000
s 1
usemtl Road.001
f 29/35/14 30/36/15 32/37/16 31/38/17
f 31/38/17 32/37/16 36/39/18 35/40/19
f 35/40/19 36/39/18 34/41/20 33/42/21
f 33/42/21 34/41/20 30/43/15 29/44/14
f 31/45/17 35/40/19 33/42/21 29/46/14
f 36/39/18 32/47/16 30/48/15 34/41/20
o Plane.021
v -3.500000 0.110000 -40.662792
v 3.500000 0.110000 -40.662792
v -3.500000 0.110000 -41.062794
v 3.500000 0.110000 -41.062794
vn -0.0000 1.0000 -0.0000
vt 0.000000 0.000000
vt 1.000000 0.000000
vt 1.000000 1.000000
vt 0.000000 1.000000
s 1
usemtl LaneMark
f 37/49/22 38/50/22 40/51/22 39/52/22
o Plane.012
v -14.500000 0.110000 -45.912788
v -14.500000 0.110000 -46.212788
v -17.500000 0.110000 -45.912800
v -17.500000 0.110000 -46.212799
vn -0.0000 1.0000 -0.0000
vt 0.000000 0.000000
vt 1.000000 0.000000
vt 1.000000 1.000000
vt 0.000000 1.000000
s 1
usemtl LaneMark
f 41/53/23 42/54/23 44/55/23 43/56/23
o Cube.008
v 4.000000 -0.049998 -20.062794
v 4.000000 0.350002 -20.062794
v 4.000000 -0.050002 -42.062794
v 4.000000 0.349998 -42.062794
v 4.600000 -0.049998 -20.062794
v 4.600000 0.350002 -20.062794
v 4.600000 -0.050002 -42.062794
v 4.600000 0.349998 -42.062794
vn -0.5546 -0.8320 0.0151
vn -0.5546 0.8320 0.0151
vn -0.5546 0.8320 -0.0151
vn -0.5546 -0.8320 -0.0151
vn 0.5546 0.8320 -0.0151
vn 0.5546 -0.8320 -0.0151
vn 0.5546 0.8320 0.0151
vn 0.5546 -0.8320 0.0151
vt 0.375000 0.000000
vt 0.625000 0.000000
vt 0.625000 0.250000
vt 0.375000 0.250000
vt 0.625000 0.500000
vt 0.375000 0.500000
vt 0.625000 0.750000
vt 0.375000 0.750000
vt 0.625000 1.000000
vt 0.375000 1.000000
vt 0.125000 0.500000
vt 0.125000 0.750000
vt 0.875000 0.500000
vt 0.875000 0.750000
s 1
usemtl Curb.004
f 45/57/24 46/58/25 48/59/26 47/60/27
f 47/60/27 48/59/26 52/61/28 51/62/29
f 51/62/29 52/61/28 50/63/30 49/64/31
f 49/64/31 50/63/30 46/65/25 45/66/24
f 47/67/27 51/62/29 49/64/31 45/68/24
f 52/61/28 48/69/26 46/70/25 50/63/30
o Plane.019
v 25.500000 0.110000 -45.912788
v 25.500000 0.110000 -46.212788
v 22.500000 0.110000 -45.912800
v 22.500000 0.110000 -46.212799
vn -0.0000 1.0000 -0.0000
vt 0.000000 0.000000
vt 1.000000 0.000000
vt 1.000000 1.000000
vt 0.000000 1.000000
s 1
usemtl LaneMark
f 53/71/32 54/72/32 56/73/32 55/74/32
o Plane.015
v 9.500000 0.110000 -45.912788
v 9.500000 0.110000 -46.212788
v 6.500000 0.110000 -45.912800
v 6.500000 0.110000 -46.212799
vn -0.0000 1.0000 -0.0000
vt 0.000000 0.000000
vt 1.000000 0.000000
vt 1.000000 1.000000
vt 0.000000 1.000000
s 1
usemtl LaneMark
f 57/75/33 58/76/33 60/77/33 59/78/33
o Plane.018
v 21.500000 0.110000 -45.912788
v 21.500000 0.110000 -46.212788
v 18.500000 0.110000 -45.912800
v 18.500000 0.110000 -46.212799
vn -0.0000 1.0000 -0.0000
vt 0.000000 0.000000
vt 1.000000 0.000000
vt 1.000000 1.000000
vt 0.000000 1.000000
s 1
usemtl LaneMark
f 61/79/34 62/80/34 64/81/34 63/82/34
o Plane.017
v 17.500000 0.110000 -45.912788
v 17.500000 0.110000 -46.212788
v 14.500000 0.110000 -45.912800
v 14.500000 0.110000 -46.212799
vn -0.0000 1.0000 -0.0000
vt 0.000000 0.000000
vt 1.000000 0.000000
vt 1.000000 1.000000
vt 0.000000 1.000000
s 1
usemtl LaneMark
f 65/83/35 66/84/35 68/85/35 67/86/35
o Plane.007
v -0.150000 0.110000 -60.562794
v 0.150000 0.110000 -60.562794
v -0.150000 0.110000 -63.562794
v 0.150000 0.110000 -63.562794
vn -0.0000 1.0000 -0.0000
vt 0.000000 0.000000
vt 1.000000 0.000000
vt 1.000000 1.000000
vt 0.000000 1.000000
s 1
usemtl LaneMark
f 69/87/36 70/88/36 72/89/36 71/90/36
o Cube.005
v -4.600000 -0.049998 -50.062794
v -4.600000 0.350002 -50.062794
v -4.600000 -0.050002 -72.062790
v -4.600000 0.349998 -72.062790
v -4.000000 -0.049998 -50.062794
v -4.000000 0.350002 -50.062794
v -4.000000 -0.050002 -72.062790
v -4.000000 0.349998 -72.062790
vn -0.5546 -0.8320 0.0151
vn -0.5546 0.8320 0.0151
vn -0.5546 0.8320 -0.0151
vn -0.5546 -0.8320 -0.0151
vn 0.5546 0.8320 -0.0151
vn 0.5546 -0.8320 -0.0151
vn 0.5546 0.8320 0.0151
vn 0.5546 -0.8320 0.0151
vt 0.375000 0.000000
vt 0.625000 0.000000
vt 0.625000 0.250000
vt 0.375000 0.250000
vt 0.625000 0.500000
vt 0.375000 0.500000
vt 0.625000 0.750000
vt 0.375000 0.750000
vt 0.625000 1.000000
vt 0.375000 1.000000
vt 0.125000 0.500000
vt 0.125000 0.750000
vt 0.875000 0.500000
vt 0.875000 0.750000
s 1
usemtl Curb.004
f 73/91/37 74/92/38 76/93/39 75/94/40
f 75/94/40 76/93/39 80/95/41 79/96/42
f 79/96/42 80/95/41 78/97/43 77/98/44
f 77/98/44 78/97/43 74/99/38 73/100/37
f 75/101/40 79/96/42 77/98/44 73/102/37
f 80/95/41 76/103/39 74/104/38 78/97/43
o Plane.010
v -22.500000 0.110000 -45.912788
v -22.500000 0.110000 -46.212788
v -25.500000 0.110000 -45.912800
v -25.500000 0.110000 -46.212799
vn -0.0000 1.0000 -0.0000
vt 0.000000 0.000000
vt 1.000000 0.000000
vt 1.000000 1.000000
vt 0.000000 1.000000
s 1
usemtl LaneMark
f 81/105/45 82/106/45 84/107/45 83/108/45
o Cube.010
v -26.000000 -0.050000 -41.462795
v -26.000000 0.350000 -41.462795
v -26.000000 -0.050000 -42.062794
v -26.000000 0.350000 -42.062794
v -4.000000 -0.050000 -41.462795
v -4.000000 0.350000 -41.462795
v -4.000000 -0.050000 -42.062794
v -4.000000 0.350000 -42.062794
vn -0.0151 -0.8320 0.5546
vn -0.0151 0.8320 0.5546
vn -0.0151 0.8320 -0.5546
vn -0.0151 -0.8320 -0.5546
vn 0.0151 0.8320 -0.5546
vn 0.0151 -0.8320 -0.5546
vn 0.0151 0.8320 0.5546
vn 0.0151 -0.8320 0.5546
vt 0.375000 0.000000
vt 0.625000 0.000000
vt 0.625000 0.250000
vt 0.375000 0.250000
vt 0.625000 0.500000
vt 0.375000 0.500000
vt 0.625000 0.750000
vt 0.375000 0.750000
vt 0.625000 1.000000
vt 0.375000 1.000000
vt 0.125000 0.500000
vt 0.125000 0.750000
vt 0.875000 0.500000
vt 0.875000 0.750000
s 1
usemtl Curb.004
f 85/109/46 86/110/47 88/111/48 87/112/49
f 87/112/49 88/111/48 92/113/50 91/114/51
f 91/114/51 92/113/50 90/115/52 89/116/53
f 89/116/53 90/115/52 86/117/47 85/118/46
f 87/119/49 91/114/51 89/116/53 85/120/46
f 92/113/50 88/121/48 86/122/47 90/115/52
o Plane.016
v 13.500000 0.110000 -45.912788
v 13.500000 0.110000 -46.212788
v 10.500000 0.110000 -45.912800
v 10.500000 0.110000 -46.212799
vn -0.0000 1.0000 -0.0000
vt 0.000000 0.000000
vt 1.000000 0.000000
vt 1.000000 1.000000
vt 0.000000 1.000000
s 1
usemtl LaneMark
f 93/123/54 94/124/54 96/125/54 95/126/54
o Plane.009
v -0.150000 0.110000 -68.562790
v 0.150000 0.110000 -68.562790
v -0.150000 0.110000 -71.562790
v 0.150000 0.110000 -71.562790
vn -0.0000 1.0000 -0.0000
vt 0.000000 0.000000
vt 1.000000 0.000000
vt 1.000000 1.000000
vt 0.000000 1.000000
s 1
usemtl LaneMark
f 97/127/55 98/128/55 100/129/55 99/130/55
o Plane.008
v -0.150000 0.110000 -64.562790
v 0.150000 0.110000 -64.562790
v -0.150000 0.110000 -67.562790
v 0.150000 0.110000 -67.562790
vn -0.0000 1.0000 -0.0000
vt 0.000000 0.000000
vt 1.000000 0.000000
vt 1.000000 1.000000
vt 0.000000 1.000000
s 1
usemtl LaneMark
f 101/131/56 102/132/56 104/133/56 103/134/56
o Plane
v -0.150000 0.110000 -20.562794
v 0.150000 0.110000 -20.562794
v -0.150000 0.110000 -23.562794
v 0.150000 0.110000 -23.562794
vn -0.0000 1.0000 -0.0000
vt 0.000000 0.000000
vt 1.000000 0.000000
vt 1.000000 1.000000
vt 0.000000 1.000000
s 1
usemtl LaneMark
f 105/135/57 106/136/57 108/137/57 107/138/57
o Cube
v -4.000000 -0.099999 -42.062794
v -4.000000 0.100001 -42.062794
v -4.000000 -0.100001 -50.062794
v -4.000000 0.099999 -50.062794
v 4.000000 -0.099999 -42.062794
v 4.000000 0.100001 -42.062794
v 4.000000 -0.100001 -50.062794
v 4.000000 0.099999 -50.062794
vn -0.0250 -0.9994 0.0250
vn -0.0250 0.9994 0.0250
vn -0.0250 0.9994 -0.0250
vn -0.0250 -0.9994 -0.0250
vn 0.0250 0.9994 -0.0250
vn 0.0250 -0.9994 -0.0250
vn 0.0250 0.9994 0.0250
vn 0.0250 -0.9994 0.0250
vt 0.375000 0.000000
vt 0.625000 0.000000
vt 0.625000 0.250000
vt 0.375000 0.250000
vt 0.625000 0.500000
vt 0.375000 0.500000
vt 0.625000 0.750000
vt 0.375000 0.750000
vt 0.625000 1.000000
vt 0.375000 1.000000
vt 0.125000 0.500000
vt 0.125000 0.750000
vt 0.875000 0.500000
vt 0.875000 0.750000
s 1
usemtl Road.001
f 109/139/58 110/140/59 112/141/60 111/142/61
f 111/142/61 112/141/60 116/143/62 115/144/63
f 115/144/63 116/143/62 114/145/64 113/146/65
f 113/146/65 114/145/64 110/147/59 109/148/58
f 111/149/61 115/144/63 113/146/65 109/150/58
f 116/143/62 112/151/60 110/152/59 114/145/64
o Cube.009
v 4.000000 -0.050000 -41.462795
v 4.000000 0.350000 -41.462795
v 4.000000 -0.050000 -42.062794
v 4.000000 0.350000 -42.062794
v 26.000000 -0.050000 -41.462795
v 26.000000 0.350000 -41.462795
v 26.000000 -0.050000 -42.062794
v 26.000000 0.350000 -42.062794
vn -0.0151 -0.8320 0.5546
vn -0.0151 0.8320 0.5546
vn -0.0151 0.8320 -0.5546
vn -0.0151 -0.8320 -0.5546
vn 0.0151 0.8320 -0.5546
vn 0.0151 -0.8320 -0.5546
vn 0.0151 0.8320 0.5546
vn 0.0151 -0.8320 0.5546
vt 0.375000 0.000000
vt 0.625000 0.000000
vt 0.625000 0.250000
vt 0.375000 0.250000
vt 0.625000 0.500000
vt 0.375000 0.500000
vt 0.625000 0.750000
vt 0.375000 0.750000
vt 0.625000 1.000000
vt 0.375000 1.000000
vt 0.125000 0.500000
vt 0.125000 0.750000
vt 0.875000 0.500000
vt 0.875000 0.750000
s 1
usemtl Curb.004
f 117/153/66 118/154/67 120/155/68 119/156/69
f 119/156/69 120/155/68 124/157/70 123/158/71
f 123/158/71 124/157/70 122/159/72 121/160/73
f 121/160/73 122/159/72 118/161/67 117/162/66
f 119/163/69 123/158/71 121/160/73 117/164/66
f 124/157/70 120/165/68 118/166/67 122/159/72
o Cube.002
v -4.000000 -0.099998 -20.062794
v -4.000000 0.100002 -20.062794
v -4.000000 -0.100002 -42.062794
v -4.000000 0.099998 -42.062794
v 4.000000 -0.099998 -20.062794
v 4.000000 0.100002 -20.062794
v 4.000000 -0.100002 -42.062794
v 4.000000 0.099998 -42.062794
vn -0.0250 -0.9996 0.0091
vn -0.0250 0.9996 0.0091
vn -0.0250 0.9996 -0.0091
vn -0.0250 -0.9996 -0.0091
vn 0.0250 0.9996 -0.0091
vn 0.0250 -0.9996 -0.0091
vn 0.0250 0.9996 0.0091
vn 0.0250 -0.9996 0.0091
vt 0.375000 0.000000
vt 0.625000 0.000000
vt 0.625000 0.250000
vt 0.375000 0.250000
vt 0.625000 0.500000
vt 0.375000 0.500000
vt 0.625000 0.750000
vt 0.375000 0.750000
vt 0.625000 1.000000
vt 0.375000 1.000000
vt 0.125000 0.500000
vt 0.125000 0.750000
vt 0.875000 0.500000
vt 0.875000 0.750000
s 1
usemtl Road.001
f 125/167/74 126/168/75 128/169/76 127/170/77
f 127/170/77 128/169/76 132/171/78 131/172/79
f 131/172/79 132/171/78 130/173/80 129/174/81
f 129/174/81 130/173/80 126/175/75 125/176/74
f 127/177/77 131/172/79 129/174/81 125/178/74
f 132/171/78 128/179/76 126/180/75 130/173/80
o Plane.014
v -6.500000 0.110000 -45.912788
v -6.500000 0.110000 -46.212788
v -9.500000 0.110000 -45.912800
v -9.500000 0.110000 -46.212799
vn -0.0000 1.0000 -0.0000
vt 0.000000 0.000000
vt 1.000000 0.000000
vt 1.000000 1.000000
vt 0.000000 1.000000
s 1
usemtl LaneMark
f 133/181/82 134/182/82 136/183/82 135/184/82
o Plane.002
v -0.150000 0.110000 -28.562794
v 0.150000 0.110000 -28.562794
v -0.150000 0.110000 -31.562794
v 0.150000 0.110000 -31.562794
vn -0.0000 1.0000 -0.0000
vt 0.000000 0.000000
vt 1.000000 0.000000
vt 1.000000 1.000000
vt 0.000000 1.000000
s 1
usemtl LaneMark
f 137/185/83 138/186/83 140/187/83 139/188/83
o Cube.011
v 4.000000 -0.050000 -50.062794
v 4.000000 0.350000 -50.062794
v 4.000000 -0.050000 -50.662792
v 4.000000 0.350000 -50.662792
v 26.000000 -0.050000 -50.062794
v 26.000000 0.350000 -50.062794
v 26.000000 -0.050000 -50.662792
v 26.000000 0.350000 -50.662792
vn -0.0151 -0.8320 0.5546
vn -0.0151 0.8320 0.5546
vn -0.0151 0.8320 -0.5546
vn -0.0151 -0.8320 -0.5546
vn 0.0151 0.8320 -0.5546
vn 0.0151 -0.8320 -0.5546
vn 0.0151 0.8320 0.5546
vn 0.0151 -0.8320 0.5546
vt 0.375000 0.000000
vt 0.625000 0.000000
vt 0.625000 0.250000
vt 0.375000 0.250000
vt 0.625000 0.500000
vt 0.375000 0.500000
vt 0.625000 0.750000
vt 0.375000 0.750000
vt 0.625000 1.000000
vt 0.375000 1.000000
vt 0.125000 0.500000
vt 0.125000 0.750000
vt 0.875000 0.500000
vt 0.875000 0.750000
s 1
usemtl Curb.004
f 141/189/84 142/190/85 144/191/86 143/192/87
f 143/192/87 144/191/86 148/193/88 147/194/89
f 147/194/89 148/193/88 146/195/90 145/196/91
f 145/196/91 146/195/90 142/197/85 141/198/84
f 143/199/87 147/194/89 145/196/91 141/200/84
f 148/193/88 144/201/86 142/202/85 146/195/90
o Plane.013
v -10.500000 0.110000 -45.912788
v -10.500000 0.110000 -46.212788
v -13.500000 0.110000 -45.912800
v -13.500000 0.110000 -46.212799
vn -0.0000 1.0000 -0.0000
vt 0.000000 0.000000
vt 1.000000 0.000000
vt 1.000000 1.000000
vt 0.000000 1.000000
s 1
usemtl LaneMark
f 149/203/92 150/204/92 152/205/92 151/206/92
o Cube.003
v 4.000000 -0.099999 -42.062794
v 4.000000 0.100001 -42.062794
v 4.000000 -0.100001 -50.062794
v 4.000000 0.099999 -50.062794
v 26.000000 -0.099999 -42.062794
v 26.000000 0.100001 -42.062794
v 26.000000 -0.100001 -50.062794
v 26.000000 0.099999 -50.062794
vn -0.0091 -0.9996 0.0250
vn -0.0091 0.9996 0.0250
vn -0.0091 0.9996 -0.0250
vn -0.0091 -0.9996 -0.0250
vn 0.0091 0.9996 -0.0250
vn 0.0091 -0.9996 -0.0250
vn 0.0091 0.9996 0.0250
vn 0.0091 -0.9996 0.0250
vt 0.375000 0.000000
vt 0.625000 0.000000
vt 0.625000 0.250000
vt 0.375000 0.250000
vt 0.625000 0.500000
vt 0.375000 0.500000
vt 0.625000 0.750000
vt 0.375000 0.750000
vt 0.625000 1.000000
vt 0.375000 1.000000
vt 0.125000 0.500000
vt 0.125000 0.750000
vt 0.875000 0.500000
vt 0.875000 0.750000
s 1
usemtl Road.001
f 153/207/93 154/208/94 156/209/95 155/210/96
f 155/210/96 156/209/95 160/211/97 159/212/98
f 159/212/98 160/211/97 158/213/99 157/214/100
f 157/214/100 158/213/99 154/215/94 153/216/93
f 155/217/96 159/212/98 157/214/100 153/218/93
f 160/211/97 156/219/95 154/220/94 158/213/99
o Cube.004
v -26.000000 -0.099999 -42.062794
v -26.000000 0.100001 -42.062794
v -26.000000 -0.100001 -50.062794
v -26.000000 0.099999 -50.062794
v -4.000000 -0.099999 -42.062794
v -4.000000 0.100001 -42.062794
v -4.000000 -0.100001 -50.062794
v -4.000000 0.099999 -50.062794
vn -0.0091 -0.9996 0.0250
vn -0.0091 0.9996 0.0250
vn -0.0091 0.9996 -0.0250
vn -0.0091 -0.9996 -0.0250
vn 0.0091 0.9996 -0.0250
vn 0.0091 -0.9996 -0.0250
vn 0.0091 0.9996 0.0250
vn 0.0091 -0.9996 0.0250
vt 0.375000 0.000000
vt 0.625000 0.000000
vt 0.625000 0.250000
vt 0.375000 0.250000
vt 0.625000 0.500000
vt 0.375000 0.500000
vt 0.625000 0.750000
vt 0.375000 0.750000
vt 0.625000 1.000000
vt 0.375000 1.000000
vt 0.125000 0.500000
vt 0.125000 0.750000
vt 0.875000 0.500000
vt 0.875000 0.750000
s 1
usemtl Road.001
f 161/221/101 162/222/102 164/223/103 163/224/104
f 163/224/104 164/223/103 168/225/105 167/226/106
f 167/226/106 168/225/105 166/227/107 165/228/108
f 165/228/108 166/227/107 162/229/102 161/230/101
f 163/231/104 167/226/106 165/228/108 161/232/101
f 168/225/105 164/233/103 162/234/102 166/227/107
o Plane.022
v 5.000000 0.110001 -42.562794
v 5.400000 0.110001 -42.562794
v 5.000000 0.109999 -49.562794
v 5.400000 0.109999 -49.562794
vn -0.0000 1.0000 -0.0000
vt 0.000000 0.000000
vt 1.000000 0.000000
vt 1.000000 1.000000
vt 0.000000 1.000000
s 1
usemtl LaneMark
f 169/235/109 170/236/109 172/237/109 171/238/109
o Cube.012
v -26.000000 -0.050000 -50.062794
v -26.000000 0.350000 -50.062794
v -26.000000 -0.050000 -50.662792
v -26.000000 0.350000 -50.662792
v -4.000000 -0.050000 -50.062794
v -4.000000 0.350000 -50.062794
v -4.000000 -0.050000 -50.662792
v -4.000000 0.350000 -50.662792
vn -0.0151 -0.8320 0.5546
vn -0.0151 0.8320 0.5546
vn -0.0151 0.8320 -0.5546
vn -0.0151 -0.8320 -0.5546
vn 0.0151 0.8320 -0.5546
vn 0.0151 -0.8320 -0.5546
vn 0.0151 0.8320 0.5546
vn 0.0151 -0.8320 0.5546
vt 0.375000 0.000000
vt 0.625000 0.000000
vt 0.625000 0.250000
vt 0.375000 0.250000
vt 0.625000 0.500000
vt 0.375000 0.500000
vt 0.625000 0.750000
vt 0.375000 0.750000
vt 0.625000 1.000000
vt 0.375000 1.000000
vt 0.125000 0.500000
vt 0.125000 0.750000
vt 0.875000 0.500000
vt 0.875000 0.750000
s 1
usemtl Curb.004
f 173/239/110 174/240/111 176/241/112 175/242/113
f 175/242/113 176/241/112 180/243/114 179/244/115
f 179/244/115 180/243/114 178/245/116 177/246/117
f 177/246/117 178/245/116 174/247/111 173/248/110
f 175/249/113 179/244/115 177/246/117 173/250/110
f 180/243/114 176/251/112 174/252/111 178/245/116
o Plane.006
v -0.150000 0.110000 -56.562794
v 0.150000 0.110000 -56.562794
v -0.150000 0.110000 -59.562794
v 0.150000 0.110000 -59.562794
vn -0.0000 1.0000 -0.0000
vt 0.000000 0.000000
vt 1.000000 0.000000
vt 1.000000 1.000000
vt 0.000000 1.000000
s 1
usemtl LaneMark
f 181/253/118 182/254/118 184/255/118 183/256/118
o Plane.001
v -0.150000 0.110000 -24.562794
v 0.150000 0.110000 -24.562794
v -0.150000 0.110000 -27.562794
v 0.150000 0.110000 -27.562794
vn -0.0000 1.0000 -0.0000
vt 0.000000 0.000000
vt 1.000000 0.000000
vt 1.000000 1.000000
vt 0.000000 1.000000
s 1
usemtl LaneMark
f 185/257/119 186/258/119 188/259/119 187/260/119
o Plane.023
v -5.400000 0.110001 -42.562794
v -5.000000 0.110001 -42.562794
v -5.400000 0.109999 -49.562794
v -5.000000 0.109999 -49.562794
vn -0.0000 1.0000 -0.0000
vt 0.000000 0.000000
vt 1.000000 0.000000
vt 1.000000 1.000000
vt 0.000000 1.000000
s 1
usemtl LaneMark
f 189/261/120 190/262/120 192/263/120 191/264/120
o Cube.006
v -4.600000 -0.049998 -20.062794
v -4.600000 0.350002 -20.062794
v -4.600000 -0.050002 -42.062794
v -4.600000 0.349998 -42.062794
v -4.000000 -0.049998 -20.062794
v -4.000000 0.350002 -20.062794
v -4.000000 -0.050002 -42.062794
v -4.000000 0.349998 -42.062794
vn -0.5546 -0.8320 0.0151
vn -0.5546 0.8320 0.0151
vn -0.5546 0.8320 -0.0151
vn -0.5546 -0.8320 -0.0151
vn 0.5546 0.8320 -0.0151
vn 0.5546 -0.8320 -0.0151
vn 0.5546 0.8320 0.0151
vn 0.5546 -0.8320 0.0151
vt 0.375000 0.000000
vt 0.625000 0.000000
vt 0.625000 0.250000
vt 0.375000 0.250000
vt 0.625000 0.500000
vt 0.375000 0.500000
vt 0.625000 0.750000
vt 0.375000 0.750000
vt 0.625000 1.000000
vt 0.375000 1.000000
vt 0.125000 0.500000
vt 0.125000 0.750000
vt 0.875000 0.500000
vt 0.875000 0.750000
s 1
usemtl Curb.004
f 193/265/121 194/266/122 196/267/123 195/268/124
f 195/268/124 196/267/123 200/269/125 199/270/126
f 199/270/126 200/269/125 198/271/127 197/272/128
f 197/272/128 198/271/127 194/273/122 193/274/121
f 195/275/124 199/270/126 197/272/128 193/276/121
f 200/269/125 196/277/123 194/278/122 198/271/127
o Plane.025
v -17.499853 0.110000 -8.410330
v -17.500116 0.110000 -8.210330
v -14.499855 0.110000 -8.406383
v -14.500118 0.110000 -8.206383
vn -0.0000 1.0000 -0.0000
vt 0.000000 0.000000
vt 1.000000 0.000000
vt 1.000000 1.000000
vt 0.000000 1.000000
s 1
usemtl Line_-16
f 201/279/129 202/280/129 204/281/129 203/282/129
o Plane.029
v -1.499867 0.110000 -8.389278
v -1.500130 0.110000 -8.189279
v 1.500130 0.110000 -8.385331
v 1.499867 0.110000 -8.185331
vn -0.0000 1.0000 -0.0000
vt 0.000000 0.000000
vt 1.000000 0.000000
vt 1.000000 1.000000
vt 0.000000 1.000000
s 1
usemtl Line_0
f 205/283/130 206/284/130 208/285/130 207/286/130
o Plane.024
v -21.499849 0.110000 -8.350122
v -21.500113 0.110000 -8.150123
v -18.499853 0.110000 -8.346175
v -18.500116 0.110000 -8.146175
vn -0.0000 1.0000 -0.0000
vt 0.000000 0.000000
vt 1.000000 0.000000
vt 1.000000 1.000000
vt 0.000000 1.000000
s 1
usemtl Line_-20
f 209/287/131 210/288/131 212/289/131 211/290/131
o Plane.027
v -9.499860 0.110000 -8.399804
v -9.500123 0.110000 -8.199804
v -6.499863 0.110000 -8.395857
v -6.500126 0.110000 -8.195857
vn -0.0000 1.0000 -0.0000
vt 0.000000 0.000000
vt 1.000000 0.000000
vt 1.000000 1.000000
vt 0.000000 1.000000
s 1
usemtl Line_-8
f 213/291/132 214/292/132 216/293/132 215/294/132
o Plane.031
v 6.500126 0.110000 -8.378753
v 6.499863 0.110000 -8.178753
v 9.500123 0.110000 -8.374805
v 9.499860 0.110000 -8.174806
vn -0.0000 1.0000 -0.0000
vt 0.000000 0.000000
vt 1.000000 0.000000
vt 1.000000 1.000000
vt 0.000000 1.000000
s 1
usemtl Line_8
f 217/295/133 218/296/133 220/297/133 219/298/133
o Cube.013
v -24.993925 -0.049996 -12.920195
v -24.993925 0.350004 -12.920195
v 25.006029 -0.050004 -12.854407
v 25.006029 0.349996 -12.854407
v -24.994715 -0.049996 -12.320195
v -24.994715 0.350004 -12.320195
v 25.005239 -0.050004 -12.254408
v 25.005239 0.349996 -12.254408
vn 0.0013 -0.0000 -1.0000
vn 1.0000 -0.0000 0.0013
vn -0.0013 -0.0000 1.0000
vn -1.0000 -0.0000 -0.0013
vn -0.0000 -1.0000 -0.0000
vn -0.0000 1.0000 -0.0000
vt 0.375000 0.000000
vt 0.625000 0.000000
vt 0.625000 0.250000
vt 0.375000 0.250000
vt 0.625000 0.500000
vt 0.375000 0.500000
vt 0.625000 0.750000
vt 0.375000 0.750000
vt 0.625000 1.000000
vt 0.375000 1.000000
vt 0.125000 0.500000
vt 0.125000 0.750000
vt 0.875000 0.500000
vt 0.875000 0.750000
s 1
usemtl Curb
f 221/299/134 222/300/134 224/301/134 223/302/134
f 223/302/135 224/301/135 228/303/135 227/304/135
f 227/304/136 228/303/136 226/305/136 225/306/136
f 225/306/137 226/305/137 222/307/137 221/308/137
f 223/309/138 227/304/138 225/306/138 221/310/138
f 228/303/139 224/311/139 222/312/139 226/305/139
o Plane.030
v 2.500129 0.110000 -8.384015
v 2.499866 0.110000 -8.184015
v 5.500127 0.110000 -8.380068
v 5.499864 0.110000 -8.180068
vn -0.0000 1.0000 -0.0000
vt 0.000000 0.000000
vt 1.000000 0.000000
vt 1.000000 1.000000
vt 0.000000 1.000000
s 1
usemtl Line_4
f 229/313/140 230/314/140 232/315/140 231/316/140
o Plane.034
v 18.500116 0.110000 -8.362963
v 18.499853 0.110000 -8.162963
v 21.500113 0.110000 -8.359015
v 21.499849 0.110000 -8.159016
vn -0.0000 1.0000 -0.0000
vt 0.000000 0.000000
vt 1.000000 0.000000
vt 1.000000 1.000000
vt 0.000000 1.000000
s 1
usemtl Line_20
f 233/317/141 234/318/141 236/319/141 235/320/141
o Road
v -24.994715 -0.099996 -12.320195
v -24.994715 0.100004 -12.320195
v 25.005239 -0.100004 -12.254408
v 25.005239 0.099996 -12.254408
v -25.005239 -0.099996 -4.320202
v -25.005239 0.100004 -4.320202
v 24.994715 -0.100004 -4.254415
v 24.994715 0.099996 -4.254415
vn 0.0013 -0.0000 -1.0000
vn 1.0000 -0.0000 0.0013
vn -0.0013 -0.0000 1.0000
vn -1.0000 -0.0000 -0.0013
vn -0.0000 -1.0000 -0.0000
vn -0.0000 1.0000 -0.0000
vt 0.375000 0.000000
vt 0.625000 0.000000
vt 0.625000 0.250000
vt 0.375000 0.250000
vt 0.625000 0.500000
vt 0.375000 0.500000
vt 0.625000 0.750000
vt 0.375000 0.750000
vt 0.625000 1.000000
vt 0.375000 1.000000
vt 0.125000 0.500000
vt 0.125000 0.750000
vt 0.875000 0.500000
vt 0.875000 0.750000
s 1
usemtl Asphalt
f 237/321/142 238/322/142 240/323/142 239/324/142
f 239/324/143 240/323/143 244/325/143 243/326/143
f 243/326/144 244/325/144 242/327/144 241/328/144
f 241/328/145 242/327/145 238/329/145 237/330/145
f 239/331/146 243/326/146 241/328/146 237/332/146
f 244/325/147 240/333/147 238/334/147 242/327/147
o Plane.033
v 14.500118 0.110000 -8.368227
v 14.499855 0.110000 -8.168227
v 17.500116 0.110000 -8.364280
v 17.499853 0.110000 -8.164280
vn -0.0000 1.0000 -0.0000
vt 0.000000 0.000000
vt 1.000000 0.000000
vt 1.000000 1.000000
vt 0.000000 1.000000
s 1
usemtl Line_16
f 245/335/148 246/336/148 248/337/148 247/338/148
o Plane.028
v -5.499864 0.110000 -8.394542
v -5.500127 0.110000 -8.194542
v -2.499866 0.110000 -8.390594
v -2.500129 0.110000 -8.190595
vn -0.0000 1.0000 -0.0000
vt 0.000000 0.000000
vt 1.000000 0.000000
vt 1.000000 1.000000
vt 0.000000 1.000000
s 1
usemtl Line_-4
f 249/339/149 250/340/149 252/341/149 251/342/149
o Cube.014
v -25.005239 -0.049996 -4.320202
v -25.005239 0.350004 -4.320202
v 24.994715 -0.050004 -4.254415
v 24.994715 0.349996 -4.254415
v -25.006029 -0.049996 -3.720203
v -25.006029 0.350004 -3.720203
v 24.993925 -0.050004 -3.654415
v 24.993925 0.349996 -3.654415
vn 0.0013 -0.0000 -1.0000
vn 1.0000 -0.0000 0.0013
vn -0.0013 -0.0000 1.0000
vn -1.0000 -0.0000 -0.0013
vn -0.0000 -1.0000 -0.0000
vn -0.0000 1.0000 -0.0000
vt 0.375000 0.000000
vt 0.625000 0.000000
vt 0.625000 0.250000
vt 0.375000 0.250000
vt 0.625000 0.500000
vt 0.375000 0.500000
vt 0.625000 0.750000
vt 0.375000 0.750000
vt 0.625000 1.000000
vt 0.375000 1.000000
vt 0.125000 0.500000
vt 0.125000 0.750000
vt 0.875000 0.500000
vt 0.875000 0.750000
s 1
usemtl Curb
f 253/343/150 254/344/150 256/345/150 255/346/150
f 255/346/151 256/345/151 260/347/151 259/348/151
f 259/348/152 260/347/152 258/349/152 257/350/152
f 257/350/153 258/349/153 254/351/153 253/352/153
f 255/353/154 259/348/154 257/350/154 253/354/154
f 260/347/155 256/355/155 254/356/155 258/349/155
o Plane.032
v 10.500122 0.110000 -8.373489
v 10.499859 0.110000 -8.173490
v 13.500120 0.110000 -8.369542
v 13.499857 0.110000 -8.169542
vn -0.0000 1.0000 -0.0000
vt 0.000000 0.000000
vt 1.000000 0.000000
vt 1.000000 1.000000
vt 0.000000 1.000000
s 1
usemtl Line_12
f 261/357/156 262/358/156 264/359/156 263/360/156
o Plane.026
v -13.499857 0.110000 -8.405067
v -13.500120 0.110000 -8.205068
v -10.499859 0.110000 -8.401120
v -10.500122 0.110000 -8.201120
vn -0.0000 1.0000 -0.0000
vt 0.000000 0.000000
vt 1.000000 0.000000
vt 1.000000 1.000000
vt 0.000000 1.000000
s 1
usemtl Line_-12
f 265/361/157 266/362/157 268/363/157 267/364/157
